<?xml version="1.0" standalone="no"?>
<!DOCTYPE svg PUBLIC "-//W3C//DTD SVG 20010904//EN"
 "http://www.w3.org/TR/2001/REC-SVG-20010904/DTD/svg10.dtd">
<svg version="1.0" xmlns="http://www.w3.org/2000/svg"
 width="312.000000pt" height="312.000000pt" viewBox="0 0 312.000000 312.000000"
 preserveAspectRatio="xMidYMid meet">
<metadata>
Created by potrace 1.14, written by Peter Selinger 2001-2017
</metadata>
<g transform="translate(0.000000,312.000000) scale(0.100000,-0.100000)"
fill="#000000" stroke="none">
<path d="M275 3044 c-22 -8 -48 -18 -57 -21 -10 -3 -18 -9 -18 -14 0 -5 -5 -9
-11 -9 -17 0 -78 -72 -102 -120 l-22 -45 0 -1275 0 -1275 27 -51 c33 -62 88
-117 148 -146 l45 -23 1275 0 1275 0 47 23 c58 29 123 94 151 153 l22 44 0
1275 0 1275 -23 47 c-29 58 -92 121 -151 150 l-46 23 -1260 2 c-1110 2 -1265
0 -1300 -13z"/>
</g>
</svg>
