<svg xmlns="http://www.w3.org/2000/svg" xmlns:xlink="http://www.w3.org/1999/xlink" width="0" height="0">
<symbol id="arcticons--bluesky" viewBox="0 0 48 48">
	<path fill="none" stroke="currentColor" stroke-linecap="round" stroke-linejoin="round" d="M24 32.19c0-.196.075.025.237.5c.874 2.577 4.289 12.631 12.096 4.593c4.111-4.232 2.208-8.463-5.275-9.741c4.28.73 9.094-.477 10.414-5.212c.38-1.362 1.028-9.752 1.028-10.885c0-5.676-4.96-3.892-8.02-1.587c-4.242 3.195-8.805 9.673-10.48 13.15c-1.675-3.477-6.238-9.954-10.48-13.15C10.46 7.553 5.5 5.77 5.5 11.445c0 1.133.647 9.523 1.028 10.885c1.32 4.735 6.133 5.943 10.414 5.212c-7.483 1.278-9.386 5.51-5.275 9.741c7.807 8.038 11.222-2.016 12.096-4.592c.162-.476.237-.697.237-.501" stroke-width="1.5" />
</symbol>
<symbol id="arcticons--facebook" viewBox="0 0 48 48">
	<path fill="none" stroke="currentColor" stroke-linecap="round" stroke-linejoin="round" d="M24 42.5V18.575a5.075 5.075 0 0 1 5.075-5.075h0c2.498 0 4.057.74 5.126 2.123m-14.5 7.665h10.15" stroke-width="1.5" />
	<path fill="none" stroke="currentColor" stroke-linecap="round" stroke-linejoin="round" d="M38.5 5.5h-29a4 4 0 0 0-4 4v29a4 4 0 0 0 4 4h29a4 4 0 0 0 4-4v-29a4 4 0 0 0-4-4" stroke-width="1.5" />
</symbol>
<symbol id="arcticons--instagram" viewBox="0 0 48 48">
	<rect width="37" height="37" x="5.5" y="5.5" fill="none" stroke="currentColor" stroke-linecap="round" stroke-linejoin="round" rx="4" ry="4" stroke-width="1.5" />
	<circle cx="35.35" cy="12.65" r="2.25" fill="none" stroke="currentColor" stroke-linecap="round" stroke-linejoin="round" stroke-width="1.5" />
	<circle cx="24" cy="24" r="8.25" fill="none" stroke="currentColor" stroke-linecap="round" stroke-linejoin="round" stroke-width="1.5" />
</symbol>
<symbol id="arcticons--linkedin" viewBox="0 0 48 48">
	<rect width="37" height="37" x="5.5" y="5.5" fill="none" stroke="currentColor" stroke-linecap="round" stroke-linejoin="round" rx="4" ry="4" stroke-width="1.5" />
	<circle cx="17.002" cy="15.399" r="1.899" fill="none" stroke="currentColor" stroke-linecap="round" stroke-linejoin="round" stroke-width="1.5" />
	<path fill="none" stroke="currentColor" stroke-linecap="round" stroke-linejoin="round" d="M17.002 20.126V34.5m15.895 0v-8.95a5.424 5.424 0 0 0-5.425-5.424h0a5.424 5.424 0 0 0-5.424 5.424m0 8.95V20.126" stroke-width="1.5" />
</symbol>
<symbol id="arcticons--mail" viewBox="0 0 48 48">
	<path fill="none" stroke="currentColor" stroke-linecap="round" stroke-linejoin="round" d="M43.5 35.5v-23a2 2 0 0 0-2-2h-35a2 2 0 0 0-2 2v23a2 2 0 0 0 2 2h35a2 2 0 0 0 2-2" stroke-width="1.5" />
	<path fill="none" stroke="currentColor" stroke-linecap="round" stroke-linejoin="round" d="M43.5 14.981L24 24L4.5 14.981" stroke-width="1.5" />
</symbol>
<symbol id="arcticons--x-twitter" viewBox="0 0 48 48">
	<path fill="none" stroke="currentColor" stroke-linecap="round" stroke-linejoin="round" d="M21.604 25.622L7.693 41.498M37.924 6.502L25.554 21.07M6.61 6.5l27.44 35h7.56l-27.439-35z" stroke-width="1.5" />
</symbol>
</svg>