<svg width="0" height="0" class="hidden">
  <symbol aria-hidden="true" xmlns="http://www.w3.org/2000/svg" fill="none" viewBox="0 0 24 24" stroke="currentColor" stroke-width="2" id="logout">
	  <path stroke-linecap="round" stroke-linejoin="round" d="M17 16l4-4m0 0l-4-4m4 4H7m6 4v1a3 3 0 01-3 3H6a3 3 0 01-3-3V7a3 3 0 013-3h4a3 3 0 013 3v1" />
	</symbol>
  <symbol aria-hidden="true" xmlns="http://www.w3.org/2000/svg" fill="none" viewBox="0 0 24 24" stroke="currentColor" stroke-width="2" id="settings">
    <path stroke-linecap="round" stroke-linejoin="round" d="M12 6V4m0 2a2 2 0 100 4m0-4a2 2 0 110 4m-6 8a2 2 0 100-4m0 4a2 2 0 110-4m0 4v2m0-6V4m6 6v10m6-2a2 2 0 100-4m0 4a2 2 0 110-4m0 4v2m0-6V4" />
	</symbol>
  <symbol xmlns="http://www.w3.org/2000/svg" fill="none" viewBox="0 0 24 24" stroke-width="1.5" stroke="currentColor" id="pencil">
   <path stroke-linecap="round" stroke-linejoin="round" d="M16.862 4.487l1.687-1.688a1.875 1.875 0 112.652 2.652L6.832 19.82a4.5 4.5 0 01-1.897 1.13l-2.685.8.8-2.685a4.5 4.5 0 011.13-1.897L16.863 4.487zm0 0L19.5 7.125" />
  </symbol>
  <symbol xmlns="http://www.w3.org/2000/svg" viewBox="0 0 256 256" id="journal">
    <path fill="currentColor" d="M180 112a4 4 0 0 1-4 4h-64a4 4 0 0 1 0-8h64a4 4 0 0 1 4 4Zm-4 28h-64a4 4 0 0 0 0 8h64a4 4 0 0 0 0-8Zm44-92v160a12 12 0 0 1-12 12H48a12 12 0 0 1-12-12V48a12 12 0 0 1 12-12h160a12 12 0 0 1 12 12ZM48 212h28V44H48a4 4 0 0 0-4 4v160a4 4 0 0 0 4 4ZM212 48a4 4 0 0 0-4-4H84v168h124a4 4 0 0 0 4-4Z"/>
  </symbol>
  <symbol xmlns="http://www.w3.org/2000/svg" viewBox="0 0 256 256" id="organisation">
    <path fill="currentColor" d="M240 212h-20V96a12 12 0 0 0-12-12h-68V32a12 12 0 0 0-18.66-10l-80 53.33a12 12 0 0 0-5.34 10V212H16a4 4 0 0 0 0 8h224a4 4 0 0 0 0-8ZM208 92a4 4 0 0 1 4 4v116h-72V92ZM44 85.34A4 4 0 0 1 45.78 82l80-53.33A4 4 0 0 1 132 32v180H44ZM108 112v16a4 4 0 0 1-8 0v-16a4 4 0 0 1 8 0Zm-32 0v16a4 4 0 0 1-8 0v-16a4 4 0 0 1 8 0Zm0 56v16a4 4 0 0 1-8 0v-16a4 4 0 0 1 8 0Zm32 0v16a4 4 0 0 1-8 0v-16a4 4 0 0 1 8 0Z"/>
  </symbol>
  <symbol xmlns="http://www.w3.org/2000/svg" viewBox="0 0 24 24" id="chevronLeft">
    <path fill="currentColor" d="M15.28 5.22a.75.75 0 0 1 0 1.06L9.56 12l5.72 5.72a.749.749 0 0 1-.326 1.275a.749.749 0 0 1-.734-.215l-6.25-6.25a.75.75 0 0 1 0-1.06l6.25-6.25a.75.75 0 0 1 1.06 0Z"/>
  </symbol>
  <symbol xmlns="http://www.w3.org/2000/svg" viewBox="0 0 24 24" id="chevronRight">
    <path fill="currentColor" d="M8.72 18.78a.75.75 0 0 1 0-1.06L14.44 12L8.72 6.28a.751.751 0 0 1 .018-1.042a.751.751 0 0 1 1.042-.018l6.25 6.25a.75.75 0 0 1 0 1.06l-6.25 6.25a.75.75 0 0 1-1.06 0Z"/>
  </symbol>
  <symbol viewBox="0 0 24 24" version="1.1" xmlns="http://www.w3.org/2000/svg" aria-hidden="true" focusable="false" id="facebook">
    <path d="M12 2C6.5 2 2 6.5 2 12c0 5 3.7 9.1 8.4 9.9v-7H7.9V12h2.5V9.8c0-2.5 1.5-3.9 3.8-3.9 1.1 0 2.2.2 2.2.2v2.5h-1.3c-1.2 0-1.6.8-1.6 1.6V12h2.8l-.4 2.9h-2.3v7C18.3 21.1 22 17 22 12c0-5.5-4.5-10-10-10z"></path>
  </symbol>
  <symbol xmlns="http://www.w3.org/2000/svg" viewBox="0 0 32 32" id="instagram">
    <circle cx="22.406" cy="9.594" r="1.44" fill="currentColor"></circle>
    <path fill="currentColor" d="M16 9.838A6.162 6.162 0 1 0 22.162 16A6.162 6.162 0 0 0 16 9.838ZM16 20a4 4 0 1 1 4-4a4 4 0 0 1-4 4Z"></path>
    <path fill="currentColor" d="M16 6.162c3.204 0 3.584.012 4.849.07a6.642 6.642 0 0 1 2.228.413a3.975 3.975 0 0 1 2.278 2.278a6.642 6.642 0 0 1 .413 2.228c.058 1.265.07 1.645.07 4.85s-.012 3.583-.07 4.848a6.642 6.642 0 0 1-.413 2.228a3.975 3.975 0 0 1-2.278 2.278a6.642 6.642 0 0 1-2.228.413c-1.265.058-1.645.07-4.849.07s-3.584-.012-4.849-.07a6.642 6.642 0 0 1-2.228-.413a3.975 3.975 0 0 1-2.278-2.278a6.642 6.642 0 0 1-.413-2.228c-.058-1.265-.07-1.645-.07-4.849s.012-3.584.07-4.849a6.642 6.642 0 0 1 .413-2.228a3.975 3.975 0 0 1 2.278-2.278a6.642 6.642 0 0 1 2.228-.413c1.265-.058 1.645-.07 4.849-.07M16 4c-3.259 0-3.668.014-4.948.072a8.807 8.807 0 0 0-2.912.558a6.136 6.136 0 0 0-3.51 3.51a8.807 8.807 0 0 0-.558 2.913C4.014 12.333 4 12.74 4 16s.014 3.668.072 4.948a8.807 8.807 0 0 0 .558 2.912a6.136 6.136 0 0 0 3.51 3.51a8.807 8.807 0 0 0 2.913.558c1.28.058 1.688.072 4.947.072s3.668-.014 4.948-.072a8.807 8.807 0 0 0 2.913-.558a6.136 6.136 0 0 0 3.51-3.51a8.807 8.807 0 0 0 .557-2.913C27.986 19.667 28 19.26 28 16s-.014-3.668-.072-4.948a8.807 8.807 0 0 0-.558-2.912a6.136 6.136 0 0 0-3.51-3.51a8.807 8.807 0 0 0-2.913-.557C19.667 4.013 19.26 4 16 4Z"></path>
  </symbol>
  <symbol xmlns="http://www.w3.org/2000/svg" viewBox="0 0 32 32" id="mail">
    <path fill="currentColor" d="M28 6H4a2 2 0 0 0-2 2v16a2 2 0 0 0 2 2h24a2 2 0 0 0 2-2V8a2 2 0 0 0-2-2Zm-2.2 2L16 14.78L6.2 8ZM4 24V8.91l11.43 7.91a1 1 0 0 0 1.14 0L28 8.91V24Z"></path>
  </symbol>
  <symbol xmlns="http://www.w3.org/2000/svg" viewBox="0 0 32 32" id="twitter">
    <path fill="currentColor" d="M11.547 25.752c9.057 0 14.01-7.503 14.01-14.01c0-.213 0-.425-.014-.636A10.017 10.017 0 0 0 28 8.556a9.827 9.827 0 0 1-2.828.776a4.942 4.942 0 0 0 2.164-2.724a9.866 9.866 0 0 1-3.126 1.195a4.929 4.929 0 0 0-8.392 4.491A13.98 13.98 0 0 1 5.67 7.15a4.928 4.928 0 0 0 1.525 6.573a4.887 4.887 0 0 1-2.235-.617v.063a4.926 4.926 0 0 0 3.95 4.827a4.917 4.917 0 0 1-2.223.084a4.93 4.93 0 0 0 4.6 3.42A9.88 9.88 0 0 1 4 23.54a13.94 13.94 0 0 0 7.547 2.209"></path>
  </symbol>
  <symbol xmlns="http://www.w3.org/2000/svg" viewBox="0 0 32 32" id="website">
    <path fill="currentColor" d="M29.25 6.76a6 6 0 0 0-8.5 0l1.42 1.42a4 4 0 1 1 5.67 5.67l-8 8a4 4 0 1 1-5.67-5.66l1.41-1.42l-1.41-1.42l-1.42 1.42a6 6 0 0 0 0 8.5A6 6 0 0 0 17 25a6 6 0 0 0 4.27-1.76l8-8a6 6 0 0 0-.02-8.48Z"></path>
    <path fill="currentColor" d="M4.19 24.82a4 4 0 0 1 0-5.67l8-8a4 4 0 0 1 5.67 0A3.94 3.94 0 0 1 19 14a4 4 0 0 1-1.17 2.85L15.71 19l1.42 1.42l2.12-2.12a6 6 0 0 0-8.51-8.51l-8 8a6 6 0 0 0 0 8.51A6 6 0 0 0 7 28a6.07 6.07 0 0 0 4.28-1.76l-1.42-1.42a4 4 0 0 1-5.67 0Z"></path>
  </symbol>
  <symbol xmlns="http://www.w3.org/2000/svg" viewBox="0 0 32 32" id="youtube">
    <path fill="currentColor" d="M29.41 9.26a3.5 3.5 0 0 0-2.47-2.47C24.76 6.2 16 6.2 16 6.2s-8.76 0-10.94.59a3.5 3.5 0 0 0-2.47 2.47A36.13 36.13 0 0 0 2 16a36.13 36.13 0 0 0 .59 6.74a3.5 3.5 0 0 0 2.47 2.47c2.18.59 10.94.59 10.94.59s8.76 0 10.94-.59a3.5 3.5 0 0 0 2.47-2.47A36.13 36.13 0 0 0 30 16a36.13 36.13 0 0 0-.59-6.74ZM13.2 20.2v-8.4l7.27 4.2Z"></path>
  </symbol>
  <symbol xmlns="http://www.w3.org/2000/svg" aria-hidden="true" focusable="false" id="tiktok">
    <path d="M16.708 0.027c1.745-0.027 3.48-0.011 5.213-0.027 0.105 2.041 0.839 4.12 2.333 5.563 1.491 1.479 3.6 2.156 5.652 2.385v5.369c-1.923-0.063-3.855-0.463-5.6-1.291-0.76-0.344-1.468-0.787-2.161-1.24-0.009 3.896 0.016 7.787-0.025 11.667-0.104 1.864-0.719 3.719-1.803 5.255-1.744 2.557-4.771 4.224-7.88 4.276-1.907 0.109-3.812-0.411-5.437-1.369-2.693-1.588-4.588-4.495-4.864-7.615-0.032-0.667-0.043-1.333-0.016-1.984 0.24-2.537 1.495-4.964 3.443-6.615 2.208-1.923 5.301-2.839 8.197-2.297 0.027 1.975-0.052 3.948-0.052 5.923-1.323-0.428-2.869-0.308-4.025 0.495-0.844 0.547-1.485 1.385-1.819 2.333-0.276 0.676-0.197 1.427-0.181 2.145 0.317 2.188 2.421 4.027 4.667 3.828 1.489-0.016 2.916-0.88 3.692-2.145 0.251-0.443 0.532-0.896 0.547-1.417 0.131-2.385 0.079-4.76 0.095-7.145 0.011-5.375-0.016-10.735 0.025-16.093z"></path>
  </symbol>
  <symbol xmlns="http://www.w3.org/2000/svg" aria-hidden="true" focusable="false" id="linkedin">
    <path d="M19.7,3H4.3C3.582,3,3,3.582,3,4.3v15.4C3,20.418,3.582,21,4.3,21h15.4c0.718,0,1.3-0.582,1.3-1.3V4.3 C21,3.582,20.418,3,19.7,3z M8.339,18.338H5.667v-8.59h2.672V18.338z M7.004,8.574c-0.857,0-1.549-0.694-1.549-1.548 c0-0.855,0.691-1.548,1.549-1.548c0.854,0,1.547,0.694,1.547,1.548C8.551,7.881,7.858,8.574,7.004,8.574z M18.339,18.338h-2.669 v-4.177c0-0.996-0.017-2.278-1.387-2.278c-1.389,0-1.601,1.086-1.601,2.206v4.249h-2.667v-8.59h2.559v1.174h0.037 c0.356-0.675,1.227-1.387,2.526-1.387c2.703,0,3.203,1.779,3.203,4.092V18.338z"></path>
  </symbol>
</svg>